<?xml version="1.0" standalone="no"?>
<!DOCTYPE svg PUBLIC "-//W3C//DTD SVG 20010904//EN"
 "http://www.w3.org/TR/2001/REC-SVG-20010904/DTD/svg10.dtd">
<svg version="1.0" xmlns="http://www.w3.org/2000/svg"
 width="707.000000pt" height="366.000000pt" viewBox="0 0 707.000000 366.000000"
 preserveAspectRatio="xMidYMid meet">

<g transform="translate(0.000000,366.000000) scale(0.100000,-0.100000)"
fill="#000000" stroke="none">
<path d="M4728 3630 c-337 -71 -620 -214 -869 -439 -311 -283 -525 -697 -569
-1105 -7 -55 -14 -120 -16 -143 l-5 -43 -422 0 -421 0 -223 221 c-214 214
-223 222 -254 215 -17 -3 -87 -6 -155 -6 l-124 0 -84 -102 -85 -103 202 -3
203 -2 214 -215 215 -215 577 0 578 0 0 148 c0 227 33 410 109 604 202 515
674 898 1211 983 58 9 117 21 132 27 37 14 58 49 58 98 0 33 -6 48 -29 71 -27
26 -36 29 -93 28 -35 0 -102 -9 -150 -19z"/>
<path d="M5383 3623 c-36 -7 -73 -59 -73 -103 0 -63 33 -92 127 -114 450 -104
855 -431 1059 -854 55 -114 74 -132 132 -132 35 0 49 6 73 29 47 48 41 90 -36
240 -237 459 -652 789 -1155 917 -52 13 -97 23 -100 23 -3 -1 -15 -4 -27 -6z"/>
<path d="M4845 3261 c-11 -5 -31 -21 -45 -35 -21 -23 -25 -39 -30 -119 -8
-127 -12 -135 -130 -185 -127 -54 -148 -51 -234 28 -115 107 -137 102 -319
-78 -76 -76 -145 -149 -153 -164 -8 -15 -14 -46 -14 -68 0 -36 7 -49 54 -98
91 -96 93 -114 39 -245 -48 -116 -65 -128 -190 -136 -90 -6 -96 -8 -123 -37
-27 -31 -27 -32 -35 -225 -8 -221 -2 -263 46 -303 26 -22 41 -26 92 -26 79 0
134 -15 161 -45 25 -27 86 -179 86 -213 0 -34 -16 -61 -72 -118 -27 -28 -52
-64 -57 -80 -17 -62 0 -90 146 -236 147 -149 173 -168 225 -168 39 0 63 15
135 82 66 61 96 63 217 12 109 -45 126 -69 126 -174 0 -84 17 -128 59 -153 25
-15 59 -17 240 -17 137 0 219 4 235 12 45 20 60 55 66 155 5 83 8 95 33 121
33 34 170 92 218 92 40 0 63 -14 136 -82 57 -53 98 -62 151 -34 15 8 91 79
168 158 183 185 188 202 79 320 -73 79 -78 106 -35 212 18 44 46 94 62 111 26
27 35 30 116 36 97 7 141 24 162 65 21 37 22 438 2 476 -22 41 -63 58 -139 58
-87 1 -143 25 -165 71 -84 180 -85 202 -4 289 64 70 83 115 67 163 -15 44
-295 323 -334 332 -50 13 -87 -3 -154 -65 -83 -78 -106 -80 -241 -23 -106 46
-115 60 -122 180 -5 89 -7 95 -38 126 l-32 32 -218 2 c-119 1 -226 -2 -237 -6z
m420 -602 c292 -71 520 -294 601 -589 25 -91 25 -319 0 -410 -83 -300 -316
-525 -616 -595 -107 -25 -272 -23 -376 4 -106 27 -163 53 -260 117 -165 109
-286 277 -340 474 -26 92 -26 320 0 410 123 437 556 695 991 589z"/>
<path d="M4955 2506 c-436 -83 -663 -554 -458 -949 56 -109 173 -222 283 -275
195 -93 387 -93 580 0 69 33 101 57 170 127 134 135 190 269 190 456 0 186
-57 323 -190 455 -92 92 -160 134 -272 168 -88 28 -215 35 -303 18z m258 -173
c111 -30 237 -135 291 -242 97 -191 66 -409 -83 -564 -100 -105 -203 -149
-346 -149 -150 0 -260 47 -363 156 -174 184 -176 475 -4 659 136 145 308 192
505 140z"/>
<path d="M4969 2167 c-88 -33 -156 -95 -193 -176 -28 -64 -28 -188 1 -252 52
-116 164 -189 289 -189 39 0 91 7 117 16 64 22 140 92 174 162 37 75 40 191 6
263 -29 64 -87 126 -147 156 -62 32 -188 42 -247 20z"/>
<path d="M2925 3057 c-22 -8 -54 -21 -71 -30 -39 -20 -122 -112 -130 -143 l-6
-24 -304 0 -304 0 -85 -102 -85 -103 389 -3 389 -2 6 -24 c9 -38 95 -125 150
-153 205 -104 450 50 450 282 0 169 -125 302 -294 311 -37 2 -82 -2 -105 -9z"/>
<path d="M6697 1950 c-34 -27 -44 -65 -51 -195 -32 -671 -536 -1268 -1205
-1430 -96 -23 -134 -55 -134 -111 0 -53 26 -91 72 -105 32 -10 53 -7 152 19
328 88 602 251 839 499 306 320 487 749 493 1173 l2 111 -33 30 c-40 36 -96
39 -135 9z"/>
<path d="M967 1482 c-154 -186 -152 -180 -105 -279 87 -186 345 -232 496 -90
19 18 47 55 63 82 l29 50 972 0 c1074 0 1002 -4 1034 64 23 47 5 104 -39 131
-31 19 -58 20 -1007 20 l-975 0 -20 36 c-28 51 -107 120 -162 138 -26 9 -69
16 -97 16 l-51 0 -138 -168z"/>
<path d="M1843 1180 c-92 -19 -172 -78 -219 -162 -26 -48 -29 -62 -29 -148 0
-86 3 -100 29 -148 77 -138 235 -197 387 -147 64 22 159 110 180 168 l13 37
716 0 716 0 37 -48 c57 -76 198 -214 293 -288 235 -184 507 -304 802 -355 135
-23 203 -24 241 -5 48 25 65 91 37 144 -20 39 -48 50 -151 62 -450 53 -862
297 -1114 657 l-36 53 -777 0 -776 0 -22 35 c-65 106 -208 169 -327 145z"/>
</g>
</svg>
